<svg width="199" height="108" viewBox="0 0 199 108" fill="none" xmlns="http://www.w3.org/2000/svg">
<path d="M127.782 31.9457C127.782 46.5471 115.073 58.4113 100.901 58.4113C86.5635 58.4113 71.4815 51.7255 59.9444 44.9966C54.1841 41.6369 49.3246 38.2767 45.9055 35.7566C44.1961 34.4967 42.8474 33.4472 41.9268 32.7134C41.5278 32.3953 41.2092 32.1365 40.9766 31.9457C41.2092 31.7548 41.5278 31.4961 41.9268 31.178C42.8474 30.4441 44.1961 29.3947 45.9055 28.1348C49.3246 25.6146 54.1841 22.2544 59.9444 18.8947C71.4815 12.1658 86.5635 5.48001 100.901 5.48001C115.073 5.48001 127.782 17.3443 127.782 31.9457Z" fill="#354570" stroke="#354570"/>
<path d="M121.134 56.2541C120.724 56.2541 120.318 56.2336 119.915 56.1933C126.388 51.6026 133.456 42.4916 133.456 31.9457C133.456 21.3998 126.388 12.2888 119.915 7.698C120.318 7.65774 120.724 7.63727 121.134 7.63727C122.261 7.63727 123.746 7.99956 125.513 8.67068C127.271 9.33834 129.269 10.2964 131.406 11.4533C135.681 13.7669 140.481 16.8568 144.987 19.9535C149.492 23.0491 153.693 26.1454 156.769 28.4684C158.307 29.6297 159.563 30.5974 160.435 31.2745C160.786 31.5476 161.075 31.7735 161.295 31.9457C161.075 32.1179 160.786 32.3437 160.435 32.6169C159.563 33.294 158.307 34.2617 156.769 35.423C153.693 37.7459 149.492 40.8423 144.987 43.9378C140.481 47.0346 135.681 50.1244 131.406 52.438C129.269 53.595 127.271 54.553 125.513 55.2207C123.746 55.8918 122.261 56.2541 121.134 56.2541Z" fill="#354570" stroke="#354570"/>
<path fill-rule="evenodd" clip-rule="evenodd" d="M108.177 8.6649C120.836 12.0569 128.348 25.0688 124.956 37.7278C121.564 50.3869 108.552 57.8993 95.8934 54.5073C83.2344 51.1153 75.7219 38.1034 79.1139 25.4444C82.5059 12.7854 95.5178 5.27292 108.177 8.6649ZM104.082 23.9457C108.302 25.0764 110.806 29.4137 109.676 33.6334C108.545 37.853 104.208 40.3572 99.9879 39.2265C95.7682 38.0959 93.2641 33.7585 94.3947 29.5389C95.5254 25.3192 99.8627 22.815 104.082 23.9457ZM118.769 18.7454C120.456 20.943 121.693 23.4512 122.41 26.1268L111.937 28.933C111.588 27.6327 110.987 26.4138 110.168 25.3458C109.348 24.2779 108.326 23.3818 107.161 22.7087L112.582 13.3189C114.981 14.7039 117.083 16.5478 118.769 18.7454Z" fill="#86CA5C"/>
<path d="M40.913 31.9457C40.913 31.9457 67.8477 2.0152 95.5634 1.02504C124.794 -0.0192346 162.079 31.9457 162.079 31.9457" stroke="#354570" stroke-width="2"/>
<path d="M162.079 31.5862C162.079 31.5862 137.661 61.1571 109.945 62.1472C80.7146 63.1915 40.913 31.5862 40.913 31.5862" stroke="#354570" stroke-width="2"/>
<path d="M9.33842 82.3013L3.11281 100.544H0L7.88779 78.7255H10.7588L18.6466 100.544H15.564L9.33842 82.3013Z" fill="#354570"/>
<path d="M24.0565 100.544H21.5481V84.9983H24.1774V96.5134L32.6091 84.9983H35.1175V100.544H32.458V88.9983L24.0565 100.544Z" fill="#354570"/>
<path d="M42.7246 87.4831V100.544H40.0953V84.9983H48.8897V87.4831H42.7246Z" fill="#354570"/>
<path d="M54.646 92.6952C54.646 94.2508 55.1799 95.5942 56.2477 96.7255C57.3155 97.8367 58.6251 98.3922 60.1765 98.3922C61.5868 98.3922 62.8259 97.8266 63.8937 96.6952C64.9616 95.5437 65.4955 94.2609 65.4955 92.8468C65.4955 91.3518 64.9716 90.0286 63.924 88.8771C62.8763 87.7255 61.607 87.1498 60.1161 87.1498C58.6251 87.1498 57.3357 87.7053 56.2477 88.8165C55.1799 89.9074 54.646 91.2003 54.646 92.6952ZM68.0341 100.544H65.4955V98.3619C63.8434 100.039 62.02 100.877 60.0254 100.877C57.6883 100.877 55.744 100.099 54.1927 98.5437C52.6614 96.9882 51.8958 95.0387 51.8958 92.6952C51.8958 90.4528 52.6614 88.5437 54.1927 86.968C55.7239 85.3922 57.6077 84.6043 59.8441 84.6043C61.9596 84.6043 63.8031 85.4124 65.3746 87.0286V84.9983H68.0341V100.544Z" fill="#354570"/>
<path d="M80.1283 91.1195V93.574H72.8752V91.1195H80.1283Z" fill="#354570"/>
<path d="M101.817 95.3316H105.443C103.61 99.0892 100.396 100.968 95.8028 100.968C92.68 100.968 90.0507 99.8468 87.915 97.6043C85.7995 95.3619 84.7418 92.6649 84.7418 89.5134C84.7418 86.4629 85.8298 83.8367 88.0057 81.6346C90.2018 79.4124 92.821 78.3013 95.8633 78.3013C98.0191 78.3013 99.923 78.7861 101.575 79.7558C103.308 80.7659 104.597 82.2306 105.443 84.1498H101.998C100.527 82.17 98.4623 81.1801 95.8028 81.1801C93.6269 81.1801 91.7431 82.0185 90.1514 83.6952C88.5598 85.372 87.7639 87.3114 87.7639 89.5134C87.7639 91.7963 88.5295 93.7861 90.0608 95.4831C91.6323 97.2407 93.5463 98.1195 95.8028 98.1195C98.4623 98.1195 100.467 97.1902 101.817 95.3316Z" fill="#354570"/>
<path d="M117.11 87.1195C115.821 87.1195 114.713 87.5033 113.786 88.271C112.879 89.0387 112.245 90.0589 111.882 91.3316H122.157C121.331 88.5235 119.649 87.1195 117.11 87.1195ZM121.523 95.7558H124.484C123.014 99.2306 120.535 100.968 117.05 100.968C114.834 100.968 112.94 100.16 111.368 98.5437C109.817 96.9276 109.041 94.9983 109.041 92.7558C109.041 90.5134 109.817 88.5841 111.368 86.968C112.92 85.3518 114.803 84.5437 117.02 84.5437C118.793 84.5437 120.324 85.0084 121.613 85.9377C122.903 86.8468 123.84 88.1397 124.424 89.8165C124.807 90.9074 124.998 92.2104 124.998 93.7255H111.822C112.063 95.0791 112.658 96.2003 113.605 97.0892C114.572 97.9781 115.72 98.4225 117.05 98.4225C119.004 98.4225 120.495 97.5336 121.523 95.7558Z" fill="#354570"/>
<path d="M131.74 92.6649C131.74 94.1801 132.264 95.5134 133.311 96.6649C134.359 97.7962 135.628 98.3619 137.119 98.3619C138.63 98.3619 139.92 97.8165 140.988 96.7255C142.055 95.6346 142.589 94.3316 142.589 92.8165C142.589 91.2407 142.055 89.8973 140.988 88.7861C139.94 87.675 138.64 87.1195 137.089 87.1195C135.659 87.1195 134.409 87.6851 133.342 88.8165C132.274 89.9478 131.74 91.2306 131.74 92.6649ZM137.391 100.907C135.316 100.907 133.452 100.099 131.8 98.4831V107.301H129.201V84.968H131.861V87.0589C133.473 85.4427 135.256 84.6346 137.21 84.6346C139.567 84.6346 141.511 85.4124 143.043 86.968C144.574 88.5033 145.34 90.4528 145.34 92.8165C145.34 95.0387 144.594 96.9478 143.103 98.5437C141.632 100.119 139.728 100.907 137.391 100.907Z" fill="#354570"/>
<path d="M149.697 100.544V84.9983H155.439C159.005 84.9983 160.788 86.4124 160.788 89.2407C160.788 90.6346 160.144 91.6548 158.854 92.3013V92.4225C159.6 92.7255 160.224 93.2205 160.728 93.9074C161.232 94.574 161.483 95.3013 161.483 96.0892C161.483 97.6447 160.899 98.8063 159.731 99.574C158.743 100.22 157.434 100.544 155.802 100.544H149.697ZM155.288 87.3013H152.266V91.574H155.288C157.323 91.574 158.34 90.7963 158.34 89.2407C158.34 87.9478 157.323 87.3013 155.288 87.3013ZM152.266 93.6952V98.2407H155.59C157.706 98.2407 158.763 97.5134 158.763 96.0589C158.763 94.4831 157.706 93.6952 155.59 93.6952H152.266Z" fill="#354570"/>
<path d="M168.243 100.544H165.735V84.9983H168.364V96.5134L176.796 84.9983H179.304V100.544H176.645V88.9983L168.243 100.544Z" fill="#354570"/>
<path d="M196.099 95.3619H199C197.67 99.0993 195.162 100.968 191.475 100.968C189.158 100.968 187.244 100.19 185.733 98.6346C184.222 97.0589 183.466 95.1094 183.466 92.7861C183.466 90.4225 184.232 88.4629 185.763 86.9074C187.314 85.3518 189.259 84.574 191.596 84.574C193.389 84.574 194.92 85.0589 196.189 86.0286C197.479 86.9781 198.416 88.3114 199 90.0286H196.099C195.232 88.0892 193.651 87.1195 191.354 87.1195C189.863 87.1195 188.634 87.6851 187.667 88.8165C186.7 89.9276 186.216 91.2407 186.216 92.7558C186.216 94.3114 186.7 95.6346 187.667 96.7255C188.674 97.8771 189.944 98.4528 191.475 98.4528C193.812 98.4528 195.353 97.4225 196.099 95.3619Z" fill="#354570"/>
</svg>
