<svg width="42" height="23" viewBox="0 0 42 23" fill="none" xmlns="http://www.w3.org/2000/svg">
<path d="M29.3092 11.2039C29.3092 15.7832 25.3137 19.523 20.8543 19.523C16.2565 19.523 11.3877 17.3739 7.62895 15.1816C5.75778 14.0902 4.17863 12.9983 3.0676 12.1794C2.52163 11.777 2.08931 11.4409 1.79159 11.2039C2.08931 10.9669 2.52163 10.6308 3.0676 10.2284C4.17863 9.40949 5.75778 8.31759 7.62895 7.22624C11.3877 5.03396 16.2565 2.88477 20.8543 2.88477C25.3137 2.88477 29.3092 6.62458 29.3092 11.2039Z" fill="white" stroke="#354570"/>
<path d="M28.1439 3.6962C28.3353 3.74716 28.549 3.8169 28.7843 3.90626C29.3403 4.11743 29.9792 4.42333 30.6709 4.79769C32.0539 5.54619 33.6127 6.54915 35.0822 7.55909C36.5499 8.56776 37.9198 9.57726 38.9233 10.3351C39.3909 10.6882 39.7785 10.9863 40.0589 11.2038C39.7785 11.4214 39.3909 11.7195 38.9233 12.0726C37.9198 12.8304 36.5499 13.8399 35.0822 14.8486C33.6127 15.8585 32.0539 16.8614 30.6709 17.6099C29.9792 17.9843 29.3402 18.2902 28.7843 18.5014C28.549 18.5907 28.3353 18.6605 28.1439 18.7114C30.0405 17.0357 31.8378 14.3153 31.8378 11.2038C31.8378 8.0923 30.0405 5.37198 28.1439 3.6962Z" fill="white" stroke="#354570"/>
<path fill-rule="evenodd" clip-rule="evenodd" d="M23.2339 3.58983C27.374 4.69918 29.831 8.95474 28.7216 13.0949C27.6123 17.235 23.3567 19.692 19.2166 18.5826C15.0764 17.4733 12.6195 13.2177 13.7288 9.07758C14.8382 4.93743 19.0937 2.48048 23.2339 3.58983ZM21.8948 8.58743C23.2748 8.95721 24.0938 10.3757 23.724 11.7558C23.3542 13.1358 21.9357 13.9548 20.5557 13.585C19.1756 13.2152 18.3566 11.7967 18.7264 10.4167C19.0962 9.03663 20.5147 8.21765 21.8948 8.58743ZM26.6982 6.88667C27.2497 7.60539 27.6542 8.4257 27.8887 9.30076L24.4635 10.2185C24.3495 9.79328 24.153 9.39463 23.8849 9.04535C23.6169 8.69607 23.2827 8.40299 22.9015 8.18286L24.6745 5.11193C25.459 5.56489 26.1467 6.16795 26.6982 6.88667Z" fill="#354570"/>
<path d="M1.23517 11.2038C1.23517 11.2038 10.0442 1.41503 19.1086 1.0912C28.6685 0.749666 40.8625 11.2038 40.8625 11.2038" stroke="white" stroke-width="2"/>
<path d="M40.8625 11.0863C40.8625 11.0863 32.8766 20.7575 23.8121 21.0813C14.2523 21.4228 1.23515 11.0863 1.23515 11.0863" stroke="white" stroke-width="2"/>
</svg>
